<?xml version="1.0" encoding="UTF-8"?>
<svg viewBox="0 0 387.99 355.3" xmlns="http://www.w3.org/2000/svg">
<path d="m194.03 291.86h-0.058-104.73v33.069c0 40.257-58.238 40.736-58.238 0v-33.069h-30.997v-103.56c0-27.796 22.358-42.485 34.984-44.088l31.874-81.397c6-15.5 19-28.748 43.5-28.748h45.539v-21.252c0-8.5 4.61-12.816 12.11-12.816h25.961 0.058-0.062 0.059 26.461c7.5 0 12.11 4.316 12.11 12.816v21.252h45.016c24.5 0 37.5 13.248 43.5 28.748l31.874 81.397c12.626 1.603 35.007 16.292 35.007 44.088v103.56h-30.997v33.069c0 40.736-58.238 40.257-58.238 0v-33.069h-104.73-0.059 0.062z"/>
<g fill="#fff">
<path d="m193.96 142.3h-0.059-125.92l23.998-62.98c3-9 7.502-15.5 18.002-15.597h83.921 0.059 0.059 83.963c10.5 0.097 15 6.597 18 15.597l23.998 62.98h-125.96-0.059z"/>
<path d="m61.043 228.55c-14.856 0-26.901-12.291-26.901-27.45s12.045-27.449 26.901-27.449 26.9 12.29 26.9 27.449-12.044 27.45-26.9 27.45z"/>
<path d="m326.93 228.55c14.856 0 26.9-12.291 26.9-27.45s-12.044-27.449-26.9-27.449-26.901 12.29-26.901 27.449 12.045 27.45 26.901 27.45z"/>
</g>
</svg>