<?xml version="1.0" encoding="UTF-8"?>
<svg enable-background="new 0 0 1000 1000" version="1.1" viewBox="0 0 1e3 1e3" xml:space="preserve"
    xmlns="http://www.w3.org/2000/svg"><path d="m814.82 382.75h-45.773c0-9.665-7.835-17.5-17.5-17.5h-57.5c-9.665 0-17.5 7.835-17.5 17.5h-64c0-9.665-7.835-17.5-17.5-17.5h-150c-9.665 0-17.5 7.835-17.5 17.5h-28.058c-123.54 0-228.1 91.845-243.34 214.44-0.04 0.323-0.079 0.64-0.117 0.952-0.166 1.379-0.064 2.719 0.241 3.986-3.965 1.814-6.726 5.807-6.726 10.453v10.667c0 6.351 5.149 11.5 11.5 11.5h193.61c6.351 0 11.5-5.149 11.5-11.5v-10.667c0-0.625-0.064-1.235-0.16-1.833h25.859c-0.096 0.598-0.16 1.208-0.16 1.833v10.667c0 6.351 5.149 11.5 11.5 11.5h193.61c6.351 0 11.5-5.149 11.5-11.5v-10.667c0-0.625-0.064-1.235-0.16-1.833h25.859c-0.096 0.598-0.16 1.208-0.16 1.833v10.667c0 6.351 5.149 11.5 11.5 11.5h193.61c6.351 0 11.5-5.149 11.5-11.5v-10.667c0-0.625-0.064-1.235-0.16-1.833h0.16v-192.36c1e-3 -19.683-15.955-35.639-35.638-35.639zm-419.34 115.04c-17.829 23.27-45.942 38.094-77.072 38.094h-119.1c14.1-30.59 35.01-57.27 60.68-78.26h115.61c20.695 1e-3 32.47 23.739 19.884 40.166zm56.068-15.165c0-13.807 11.193-25 25-25h242c13.807 0 25 11.193 25 25v28.26c0 13.807-11.193 25-25 25h-242c-13.807 0-25-11.193-25-25v-28.26zm360.5 97.13h-352c-4.694 0-8.5-3.806-8.5-8.5s3.806-8.5 8.5-8.5h352c4.694 0 8.5 3.806 8.5 8.5s-3.806 8.5-8.5 8.5zm8.5-68.87c0 13.807-11.193 25-25 25h-1.5c-13.807 0-25-11.193-25-25v-28.26c0-13.807 11.193-25 25-25h1.5c13.807 0 25 11.193 25 25v28.26z" fill="#231F20"/></svg>