<?xml version="1.0" ?><svg viewBox="0 0 64 64" xmlns="http://www.w3.org/2000/svg"><g id="Flat"><g id="Color"><ellipse cx="32" cy="53.5" fill="#fccd1d" rx="29" ry="7.5"/><ellipse cx="32" cy="53.5" fill="#f9a215" rx="20" ry="3.5"/><path d="M54,25A22,22,0,1,0,22.86,45l7.82,7.84a2,2,0,0,0,2.64,0L41.14,45A22,22,0,0,0,54,25Z" fill="#dd051d"/><circle cx="32" cy="25" fill="#fff" r="18"/><path d="M40.5,32.06a16,16,0,0,1-17,0V21.5h17Z" fill="#111315"/><path d="M45,21v7a1,1,0,0,1-2,0V20.23L45,21Z" fill="#111315"/><polygon fill="#212529" points="31.99 16 19.01 21 32.01 26 44.99 21 31.99 16"/></g></g></svg>