<?xml version="1.0" ?><svg data-name="Layer 9" id="Layer_9" viewBox="0 0 100 100" xmlns="http://www.w3.org/2000/svg"><title/><path d="M78.88,30H21.13C14,30,8,35.46,8,42.63V57.38C8,64.54,14,70,21.13,70l57.94.32A13,13,0,0,0,92,57.38V42.63C92,35.46,86,30,78.88,30ZM21.13,32H78.88C84.94,32,90,36.56,90,42.63v4.71L79.82,54H20.3L10,47.29V42.63C10,36.56,15.06,32,21.13,32Zm1.29,36,1.51-2.2,51.32,0L77,68Zm57.39.33L76.41,64H23l-3.33,4.27A11.06,11.06,0,0,1,10,57.38V49.69L19.7,56H80.43L90,49.74v7.64A11.06,11.06,0,0,1,79.81,68.33ZM79,63h8V58H79Zm2-3h4v1H81ZM13,63h8V58H13Zm2-3h4v1H15ZM80,36H20V34H80Zm0,4H20V38H80Zm0,4H20V42H80Z"/></svg>