<?xml version="1.0"?>
<svg viewBox="0 0 64 64" xmlns="http://www.w3.org/2000/svg">
    <title />
    <g data-name="Line 2 color" id="Line_2_color">
        <path
            d="M26,37.2974V17a6,6,0,0,0-12,0V37.2974a9,9,0,1,0,12,0ZM20,51a6.9965,6.9965,0,0,1-4.374-12.46A1,1,0,0,0,16,37.76V35a1,1,0,0,0,0-2V30a1,1,0,0,0,0-2V25a1,1,0,0,0,0-2V20a1,1,0,0,0,0-2V17a4,4,0,0,1,8,0V37.76a1,1,0,0,0,.374.78A6.9965,6.9965,0,0,1,20,51Z"
            style="fill:#00bcd4" />
        <path
            d="M21,41.1843V41a1,1,0,0,0-2,0v.1843a3,3,0,1,0,2,0ZM20,45a1,1,0,1,1,1-1A1.0013,1.0013,0,0,1,20,45Z"
            style="fill:#eb4559" />
        <path
            d="M49,30l-15-.0278a4.5,4.5,0,0,1,.15-8.9585A7.4991,7.4991,0,0,1,48.9834,22H49a4,4,0,0,1,0,8ZM34.5,28H49a1.9969,1.9969,0,1,0-.6782-3.874,1,1,0,0,1-1.3477-1.023q.0264-.3011.0259-.603a5.4981,5.4981,0,0,0-10.9824-.3921,1,1,0,0,1-1.1729.9165A1.9553,1.9553,0,0,0,34.5,23a2.5,2.5,0,0,0,0,5Z"
            style="fill:#eb4559" />
    </g>
</svg>