<?xml version="1.0" ?><svg data-name="Capa 1" id="Capa_1" viewBox="0 0 20 19.84" xmlns="http://www.w3.org/2000/svg"><path d="M14.91,9.75H5.09a.26.26,0,0,0-.26.26.27.27,0,0,0,.26.27h.07a27.74,27.74,0,0,0,.19,3.14,1.41,1.41,0,0,0,1,1,26.52,26.52,0,0,0,3.65.2,26.66,26.66,0,0,0,3.66-.2,1.41,1.41,0,0,0,1-1,27.56,27.56,0,0,0,.19-3.13h.07a.27.27,0,0,0,.26-.27A.26.26,0,0,0,14.91,9.75Zm-.78,3.56a.88.88,0,0,1-.61.59,25.61,25.61,0,0,1-3.52.18,26.87,26.87,0,0,1-3.5-.18.88.88,0,0,1-.63-.59,26.57,26.57,0,0,1-.18-3h8.62A26.42,26.42,0,0,1,14.13,13.31Z"/><path d="M7.63,8.07a.74.74,0,0,0-.5.67A.24.24,0,0,0,7.37,9a.24.24,0,0,0,.24-.24c0-.1,0-.15.25-.25s.44-.24.44-.56S8,7.47,7.86,7.37s-.25-.15-.25-.25,0-.15.25-.25a.68.68,0,0,0,.44-.56h0a.69.69,0,0,0-.44-.56c-.2-.1-.25-.14-.25-.25a.24.24,0,0,0-.24-.24.24.24,0,0,0-.24.24.74.74,0,0,0,.5.67c.13.07.19.11.19.14s-.06.07-.19.14a.75.75,0,0,0-.5.67.74.74,0,0,0,.5.67c.13.07.19.11.19.14S7.76,8,7.63,8.07Z"/><path d="M9.91,8.07a.75.75,0,0,0-.49.67A.24.24,0,0,0,9.66,9a.24.24,0,0,0,.24-.24c0-.1,0-.15.24-.25s.44-.24.44-.56-.26-.46-.44-.56-.24-.15-.24-.25,0-.15.24-.25a.66.66,0,0,0,.44-.56h0c0-.32-.27-.46-.44-.56S9.9,5.61,9.9,5.5a.24.24,0,0,0-.24-.24.24.24,0,0,0-.24.24.75.75,0,0,0,.49.67c.13.07.19.11.19.14s-.06.07-.19.14a.76.76,0,0,0-.49.67.75.75,0,0,0,.49.67c.13.07.19.11.19.14S10,8,9.91,8.07Z"/><path d="M12.2,8.07a.74.74,0,0,0-.5.67.24.24,0,0,0,.48,0c0-.1.05-.15.24-.25s.44-.24.44-.56-.26-.46-.44-.56-.24-.15-.24-.25.05-.15.24-.25a.65.65,0,0,0,.44-.56h0c0-.32-.26-.46-.44-.56s-.24-.14-.24-.25a.24.24,0,1,0-.48,0,.74.74,0,0,0,.5.67c.12.07.18.11.18.14s-.06.07-.18.14a.75.75,0,0,0-.5.67.74.74,0,0,0,.5.67c.13.07.18.11.18.14S12.33,8,12.2,8.07Z"/></svg>