<?xml version="1.0" ?><svg data-name="Layer 19" id="Layer_19" viewBox="0 0 100 100" xmlns="http://www.w3.org/2000/svg"><title/><path d="M10,27V74H90V27Zm78,2V59H12V29ZM12,72V61H88V72ZM30.85,56.64A13.17,13.17,0,1,0,17.68,43.48,13.18,13.18,0,0,0,30.85,56.64Zm0-24.33A11.17,11.17,0,1,1,19.68,43.48,11.18,11.18,0,0,1,30.85,32.31ZM69.12,56.64A13.17,13.17,0,1,0,55.95,43.48,13.18,13.18,0,0,0,69.12,56.64Zm0-24.33A11.17,11.17,0,1,1,57.95,43.48,11.18,11.18,0,0,1,69.12,32.31ZM25.43,47.74l-1.12,1,1.41,1.35,1.2-1.15A7.53,7.53,0,0,0,30,50.15V52h2V50.15a7,7,0,0,0,2.93-1.25L36,50l1.4-1.41-1.13-.86A6.27,6.27,0,0,0,37.52,45H39V43H37.52a8.38,8.38,0,0,0-1.25-3.27l1.12-1.25L36,37l-1,1.09A7.06,7.06,0,0,0,32,36.81V36H30v.81a7.59,7.59,0,0,0-3.08,1.25l-1.16-1.12-1.43,1.41,1.11,1.38A8.39,8.39,0,0,0,24.18,43H23v2h1.18A6.29,6.29,0,0,0,25.43,47.74Zm1.44-6.58,1,.85,1.41-1.48-.9-1A2.83,2.83,0,0,1,30,38.84V41h2V38.84c0,.12,1,.35,1.49.66l-1,1,1.4,1.41,1-.72A3.57,3.57,0,0,1,35.49,43H34v2h1.49c-.12,1-.35.83-.66,1.31l-1-1.11-1.41,1.35,1.05.95C33,47.8,32,48,32,48.12V47H30v1.12a2.84,2.84,0,0,1-1.64-.66l.94-1-1.43-1.41-1,1.24c-.31-.47-.54-.31-.67-1.31H28V43H26.21A3.56,3.56,0,0,1,26.87,41.17Zm36.83,6.58-1.12,1L64,50.08l1.06-1.15A7,7,0,0,0,68,50.15V52h2V50.15a7.52,7.52,0,0,0,3.06-1.25L74.21,50l1.43-1.41-1.11-.86A6.31,6.31,0,0,0,75.78,45H77V43H75.78a8.38,8.38,0,0,0-1.25-3.27l1.12-1.25L74.24,37l-1.18,1.09A7.58,7.58,0,0,0,70,36.81V36H68v.81a7.06,7.06,0,0,0-2.95,1.25L64,36.94l-1.4,1.41,1.13,1.38A8.36,8.36,0,0,0,62.45,43H61v2h1.45A6.29,6.29,0,0,0,63.69,47.74Zm1.44-6.57,1,.85,1.41-1.48-1-1C67,39.22,68,39,68,38.84V41h2V38.84a2.78,2.78,0,0,1,1.63.66l-.95,1,1.43,1.41,1-.72A3.56,3.56,0,0,1,73.75,43H72v2h1.75c-.12,1-.35.84-.66,1.31l-1-1.11-1.41,1.35.92.95a2.79,2.79,0,0,1-1.63.62V47H68v1.12c0-.12-1-.35-1.51-.66l1-1-1.4-1.41-1,1.24c-.31-.47-.53-.31-.65-1.31H66V43H64.48A3.56,3.56,0,0,1,65.13,41.17ZM30.85,61a5,5,0,1,0,5,5A5,5,0,0,0,30.85,61ZM32,68.76V66H30v2.76A3.27,3.27,0,0,1,27.95,66a3,3,0,0,1,2.94-3,3,3,0,0,1,3,3A3.14,3.14,0,0,1,32,68.76Zm33.6-6.31a5,5,0,1,0,7,0A5,5,0,0,0,65.6,62.46ZM67,68.08a3,3,0,1,1,4.78-.84l-2-2-1.41,1.41,2,2A3,3,0,0,1,67,68.08Z"/></svg>