<?xml version="1.0" ?><!DOCTYPE svg  PUBLIC '-//W3C//DTD SVG 1.1//EN'  'http://www.w3.org/Graphics/SVG/1.1/DTD/svg11.dtd'><svg enable-background="new 0 0 130 130" height="130px" id="icon" version="1.1" viewBox="0 0 130 130" width="130px" xml:space="preserve" xmlns="http://www.w3.org/2000/svg" xmlns:xlink="http://www.w3.org/1999/xlink"><g><path d="M109.775,42.618v71.425   c0,3.065-2.479,6.453-5.528,6.453H28.675c-3.052,0-6.449-3.388-6.449-6.453V42.618" fill="none" stroke="#3262F9" stroke-miterlimit="10" stroke-width="2"/><g><path d="M65.538,47.687    c15.271,0,27.649,12.382,27.649,27.65s-12.378,27.646-27.649,27.646c-15.266,0-27.646-12.378-27.646-27.646    S50.272,47.687,65.538,47.687z" fill="none" stroke="#3262F9" stroke-miterlimit="10" stroke-width="2"/><circle cx="65.722" cy="75.336" fill="none" r="19.354" stroke="#3262F9" stroke-miterlimit="10" stroke-width="2"/></g><path d="M109.775,42.158V23.06   c0-3.87-2.469-6.706-5.528-6.706H28.675c-3.059,0-6.449,2.836-6.449,6.706v19.099H109.775z" fill="none" stroke="#3262F9" stroke-miterlimit="10" stroke-width="2"/><g><circle cx="94.109" cy="31.1" fill="none" r="5.76" stroke="#3262F9" stroke-miterlimit="10" stroke-width="2"/><path d="M95.95,34.325" fill="none" stroke="#3262F9" stroke-miterlimit="10" stroke-width="2"/><path d="M98.438,37.643" fill="none" stroke="#3262F9" stroke-miterlimit="10" stroke-width="2"/></g><path d="M50.794,37.03v-5.422   c0-0.798-0.232-1.028-1.025-1.028h-20.16c-0.797,0-1.855,0.23-1.855,1.028v5.422H50.794z" fill="none" stroke="#3262F9" stroke-miterlimit="10" stroke-width="2"/><g><circle cx="64.897" cy="34.727" fill="none" r="2.303" stroke="#3262F9" stroke-miterlimit="10"/><circle cx="71.9" cy="34.727" fill="none" r="2.303" stroke="#3262F9" stroke-miterlimit="10"/><circle cx="79.088" cy="34.727" fill="none" r="2.303" stroke="#3262F9" stroke-miterlimit="10"/></g><line fill="none" stroke="#3262F9" stroke-miterlimit="10" stroke-width="2" x1="56.479" x2="56.506" y1="42.004" y2="17.158"/><path d="M91.344,85.475h-9.216" fill="none" stroke="#3262F9" stroke-miterlimit="10" stroke-width="2"/><path d="M41.866,84.952" fill="none" stroke="#3262F9" stroke-miterlimit="10" stroke-width="2"/><line fill="none" stroke="#3262F9" stroke-miterlimit="10" stroke-width="2" x1="39.734" x2="48.951" y1="85.475" y2="85.475"/></g></svg>