<svg xmlns="http://www.w3.org/2000/svg" xmlns:xlink="http://www.w3.org/1999/xlink" width="500" zoomAndPan="magnify" viewBox="0 0 375 374.999991" height="500" preserveAspectRatio="xMidYMid meet" version="1.0"><defs><g/><clipPath id="4339abe294"><path d="M 102 134.902344 L 105 134.902344 L 105 145 L 102 145 Z M 102 134.902344 " clip-rule="nonzero"/></clipPath><clipPath id="20df9bf18b"><path d="M 80.753906 156 L 91 156 L 91 159 L 80.753906 159 Z M 80.753906 156 " clip-rule="nonzero"/></clipPath><clipPath id="c88f82a1a8"><path d="M 102 170 L 105 170 L 105 180.652344 L 102 180.652344 Z M 102 170 " clip-rule="nonzero"/></clipPath><clipPath id="ccd55fcfbb"><path d="M 116 156 L 126.503906 156 L 126.503906 159 L 116 159 Z M 116 156 " clip-rule="nonzero"/></clipPath></defs><rect x="-37.5" width="450" fill="#ffffff" y="-37.499999" height="449.999989" fill-opacity="1"/><rect x="-37.5" width="450" fill="#ffffff" y="-37.499999" height="449.999989" fill-opacity="1"/><rect x="-37.5" width="450" fill="#fcb434" y="-37.499999" height="449.999989" fill-opacity="1"/><path fill="#3c4464" d="M 103.628906 167.582031 C 98.222656 167.582031 93.824219 163.183594 93.824219 157.777344 C 93.824219 152.371094 98.222656 147.972656 103.628906 147.972656 C 109.035156 147.972656 113.429688 152.371094 113.429688 157.777344 C 113.429688 163.183594 109.035156 167.582031 103.628906 167.582031 Z M 103.628906 146.339844 C 97.320312 146.339844 92.191406 151.46875 92.191406 157.777344 C 92.191406 164.082031 97.320312 169.214844 103.628906 169.214844 C 109.933594 169.214844 115.066406 164.082031 115.066406 157.777344 C 115.066406 151.46875 109.933594 146.339844 103.628906 146.339844 " fill-opacity="1" fill-rule="nonzero"/><g clip-path="url(#4339abe294)"><path fill="#3c4464" d="M 103.628906 144.707031 C 104.078125 144.707031 104.445312 144.339844 104.445312 143.886719 L 104.445312 135.71875 C 104.445312 135.265625 104.078125 134.902344 103.628906 134.902344 C 103.175781 134.902344 102.8125 135.265625 102.8125 135.71875 L 102.8125 143.886719 C 102.8125 144.339844 103.175781 144.707031 103.628906 144.707031 " fill-opacity="1" fill-rule="nonzero"/></g><path fill="#3c4464" d="M 95.976562 146.15625 C 96.128906 146.417969 96.402344 146.566406 96.683594 146.566406 C 96.824219 146.566406 96.964844 146.53125 97.09375 146.457031 C 97.484375 146.230469 97.617188 145.730469 97.390625 145.339844 L 93.304688 138.265625 C 93.082031 137.875 92.582031 137.742188 92.191406 137.96875 C 91.800781 138.191406 91.664062 138.691406 91.890625 139.082031 L 95.976562 146.15625 " fill-opacity="1" fill-rule="nonzero"/><path fill="#3c4464" d="M 84.117188 147.457031 L 91.191406 151.539062 C 91.320312 151.613281 91.460938 151.648438 91.597656 151.648438 C 91.882812 151.648438 92.15625 151.503906 92.308594 151.242188 C 92.535156 150.851562 92.398438 150.351562 92.007812 150.125 L 84.933594 146.039062 C 84.542969 145.8125 84.042969 145.949219 83.816406 146.339844 C 83.59375 146.730469 83.726562 147.230469 84.117188 147.457031 " fill-opacity="1" fill-rule="nonzero"/><g clip-path="url(#20df9bf18b)"><path fill="#3c4464" d="M 90.554688 157.777344 C 90.554688 157.324219 90.191406 156.960938 89.738281 156.960938 L 81.570312 156.960938 C 81.117188 156.960938 80.753906 157.324219 80.753906 157.777344 C 80.753906 158.226562 81.117188 158.59375 81.570312 158.59375 L 89.738281 158.59375 C 90.191406 158.59375 90.554688 158.226562 90.554688 157.777344 " fill-opacity="1" fill-rule="nonzero"/></g><path fill="#3c4464" d="M 92.308594 164.3125 C 92.082031 163.921875 91.582031 163.789062 91.191406 164.011719 L 84.117188 168.097656 C 83.726562 168.324219 83.59375 168.824219 83.816406 169.214844 C 83.96875 169.476562 84.242188 169.621094 84.527344 169.621094 C 84.664062 169.621094 84.804688 169.585938 84.933594 169.511719 L 92.007812 165.429688 C 92.398438 165.203125 92.535156 164.703125 92.308594 164.3125 " fill-opacity="1" fill-rule="nonzero"/><path fill="#3c4464" d="M 97.09375 169.097656 C 96.699219 168.871094 96.203125 169.003906 95.976562 169.394531 L 91.890625 176.472656 C 91.664062 176.859375 91.800781 177.363281 92.191406 177.585938 C 92.320312 177.660156 92.460938 177.695312 92.597656 177.695312 C 92.878906 177.695312 93.15625 177.550781 93.304688 177.289062 L 97.390625 170.214844 C 97.617188 169.820312 97.484375 169.324219 97.09375 169.097656 " fill-opacity="1" fill-rule="nonzero"/><g clip-path="url(#c88f82a1a8)"><path fill="#3c4464" d="M 103.628906 170.847656 C 103.175781 170.847656 102.8125 171.214844 102.8125 171.664062 L 102.8125 179.835938 C 102.8125 180.285156 103.175781 180.652344 103.628906 180.652344 C 104.078125 180.652344 104.445312 180.285156 104.445312 179.835938 L 104.445312 171.664062 C 104.445312 171.214844 104.078125 170.847656 103.628906 170.847656 " fill-opacity="1" fill-rule="nonzero"/></g><path fill="#3c4464" d="M 111.28125 169.394531 C 111.054688 169.003906 110.554688 168.871094 110.164062 169.097656 C 109.773438 169.324219 109.640625 169.820312 109.863281 170.214844 L 113.949219 177.289062 C 114.101562 177.550781 114.375 177.695312 114.65625 177.695312 C 114.796875 177.695312 114.9375 177.660156 115.066406 177.585938 C 115.457031 177.363281 115.589844 176.859375 115.363281 176.472656 L 111.28125 169.394531 " fill-opacity="1" fill-rule="nonzero"/><path fill="#3c4464" d="M 123.140625 168.097656 L 116.0625 164.011719 C 115.671875 163.789062 115.171875 163.921875 114.949219 164.3125 C 114.722656 164.703125 114.855469 165.203125 115.246094 165.429688 L 122.320312 169.511719 C 122.449219 169.585938 122.589844 169.621094 122.730469 169.621094 C 123.011719 169.621094 123.285156 169.476562 123.4375 169.214844 C 123.664062 168.824219 123.527344 168.324219 123.140625 168.097656 " fill-opacity="1" fill-rule="nonzero"/><g clip-path="url(#ccd55fcfbb)"><path fill="#3c4464" d="M 125.6875 156.960938 L 117.515625 156.960938 C 117.066406 156.960938 116.699219 157.324219 116.699219 157.777344 C 116.699219 158.226562 117.066406 158.59375 117.515625 158.59375 L 125.6875 158.59375 C 126.136719 158.59375 126.503906 158.226562 126.503906 157.777344 C 126.503906 157.324219 126.136719 156.960938 125.6875 156.960938 " fill-opacity="1" fill-rule="nonzero"/></g><path fill="#3c4464" d="M 114.949219 151.242188 C 115.097656 151.503906 115.375 151.648438 115.65625 151.648438 C 115.792969 151.648438 115.9375 151.613281 116.0625 151.539062 L 123.140625 147.457031 C 123.527344 147.230469 123.664062 146.730469 123.4375 146.339844 C 123.210938 145.949219 122.710938 145.8125 122.320312 146.039062 L 115.246094 150.125 C 114.855469 150.351562 114.722656 150.851562 114.949219 151.242188 " fill-opacity="1" fill-rule="nonzero"/><path fill="#3c4464" d="M 110.164062 146.457031 C 110.292969 146.53125 110.433594 146.566406 110.570312 146.566406 C 110.855469 146.566406 111.128906 146.417969 111.28125 146.15625 L 115.363281 139.082031 C 115.589844 138.691406 115.457031 138.191406 115.066406 137.96875 C 114.675781 137.742188 114.175781 137.875 113.949219 138.265625 L 109.863281 145.339844 C 109.640625 145.730469 109.773438 146.230469 110.164062 146.457031 " fill-opacity="1" fill-rule="nonzero"/><g fill="#3c4464" fill-opacity="1"><g transform="translate(38.296877, 174.318313)"><g><path d="M 34.25 -34.296875 L 34.25 0 L 30.671875 0 L 30.671875 -15.828125 L 9.21875 -15.828125 L 9.21875 0 L 5.59375 0 L 5.59375 -34.296875 L 9.21875 -34.296875 L 9.21875 -19.015625 L 30.671875 -19.015625 L 30.671875 -34.296875 Z M 34.25 -34.296875 "/></g></g></g><g fill="#cccccc" fill-opacity="1"><g transform="translate(78.128906, 174.318313)"><g/></g></g><g fill="#cccccc" fill-opacity="1"><g transform="translate(90.96588, 174.318313)"><g/></g></g><g fill="#cccccc" fill-opacity="1"><g transform="translate(103.802854, 174.318313)"><g/></g></g><g fill="#cccccc" fill-opacity="1"><g transform="translate(116.639829, 174.318313)"><g/></g></g><g fill="#3c4464" fill-opacity="1"><g transform="translate(129.468746, 174.318313)"><g><path d="M 41.203125 -34.296875 L 41.203125 0 L 37.734375 0 L 37.734375 -27.4375 L 24.25 -4.359375 L 22.546875 -4.359375 L 9.0625 -27.296875 L 9.0625 0 L 5.59375 0 L 5.59375 -34.296875 L 8.578125 -34.296875 L 23.46875 -8.875 L 38.21875 -34.296875 Z M 41.203125 -34.296875 "/></g></g></g><g fill="#3c4464" fill-opacity="1"><g transform="translate(176.260006, 174.318313)"><g><path d="M 29.84375 -3.140625 L 29.84375 0 L 5.59375 0 L 5.59375 -34.296875 L 29.109375 -34.296875 L 29.109375 -31.15625 L 9.21875 -31.15625 L 9.21875 -18.96875 L 26.953125 -18.96875 L 26.953125 -15.875 L 9.21875 -15.875 L 9.21875 -3.140625 Z M 29.84375 -3.140625 "/></g></g></g><g fill="#3c4464" fill-opacity="1"><g transform="translate(209.03839, 174.318313)"><g><path d="M 5.59375 -34.296875 L 9.21875 -34.296875 L 9.21875 0 L 5.59375 0 Z M 5.59375 -34.296875 "/></g></g></g><g fill="#3c4464" fill-opacity="1"><g transform="translate(223.83521, 174.318313)"><g><path d="M 34.25 -34.296875 L 34.25 0 L 31.265625 0 L 9.21875 -27.828125 L 9.21875 0 L 5.59375 0 L 5.59375 -34.296875 L 8.578125 -34.296875 L 30.671875 -6.46875 L 30.671875 -34.296875 Z M 34.25 -34.296875 "/></g></g></g><g fill="#3c4464" fill-opacity="1"><g transform="translate(263.669023, 174.318313)"><g/></g></g><g fill="#3c4464" fill-opacity="1"><g transform="translate(276.505998, 174.318313)"><g><path d="M 5.59375 -34.296875 L 9.21875 -34.296875 L 9.21875 -3.140625 L 28.421875 -3.140625 L 28.421875 0 L 5.59375 0 Z M 5.59375 -34.296875 "/></g></g></g><g fill="#3c4464" fill-opacity="1"><g transform="translate(305.364688, 174.318313)"><g><path d="M 27.09375 0 L 16.015625 -15.09375 L 5 0 L 0.828125 0 L 13.859375 -17.640625 L 1.671875 -34.296875 L 5.828125 -34.296875 L 16.171875 -20.28125 L 26.453125 -34.296875 L 30.375 -34.296875 L 18.234375 -17.734375 L 31.3125 0 Z M 27.09375 0 "/></g></g></g><g fill="#3c4464" fill-opacity="1"><g transform="translate(42.812509, 208.049986)"><g><path d="M 1.367188 -5.671875 C 1.402344 -3.90625 1.53125 -2.140625 1.800781 -0.394531 C 1.835938 -0.160156 1.855469 0.125 2.179688 0.125 C 2.375 0.125 2.539062 -0.0351562 2.539062 -0.234375 C 2.539062 -1.027344 2.320312 -1.800781 2.25 -2.574219 C 2.140625 -3.636719 2.105469 -4.699219 2.089844 -5.761719 C 3.636719 -5.992188 5.21875 -5.941406 6.785156 -5.941406 C 6.984375 -5.941406 7.144531 -6.101562 7.144531 -6.300781 C 7.144531 -6.625 6.820312 -6.679688 6.570312 -6.679688 C 5.074219 -6.679688 3.582031 -6.589844 2.089844 -6.480469 C 2.089844 -8.800781 2.160156 -12.042969 5.292969 -12.042969 C 5.992188 -12.042969 6.820312 -11.914062 7.453125 -11.574219 C 7.613281 -11.484375 7.777344 -11.339844 7.972656 -11.339844 C 8.171875 -11.339844 8.335938 -11.503906 8.335938 -11.699219 C 8.335938 -12.421875 5.851562 -12.726562 5.292969 -12.726562 C 1.636719 -12.726562 1.367188 -9.234375 1.367188 -6.425781 C 1.117188 -6.390625 0.757812 -6.335938 0.757812 -6.011719 C 0.757812 -5.671875 1.117188 -5.617188 1.367188 -5.671875 Z M 1.367188 -5.671875 "/></g></g></g><g fill="#3c4464" fill-opacity="1"><g transform="translate(51.380483, 208.049986)"><g><path d="M 0.757812 -5.652344 C 0.757812 -5.488281 0.972656 -5.21875 1.351562 -4.96875 C 1.332031 -4.734375 1.332031 -4.519531 1.332031 -4.285156 C 1.332031 -1.566406 2.808594 0.125 5.183594 0.125 C 6.605469 0.125 8.136719 -0.484375 8.136719 -1.042969 C 8.136719 -1.242188 7.972656 -1.402344 7.777344 -1.402344 C 7.632812 -1.402344 6.40625 -0.574219 5.183594 -0.574219 C 3.113281 -0.574219 2.015625 -1.960938 2.015625 -4.589844 C 2.863281 -4.175781 3.851562 -3.960938 4.824219 -3.960938 C 6.910156 -3.960938 8.242188 -5.039062 8.242188 -6.769531 C 8.242188 -8.53125 7.003906 -9.71875 5.164062 -9.71875 C 3.257812 -9.71875 1.871094 -8.28125 1.457031 -5.832031 C 1.3125 -5.941406 1.171875 -6.011719 1.117188 -6.011719 C 0.917969 -6.011719 0.757812 -5.851562 0.757812 -5.652344 Z M 2.089844 -5.347656 C 2.394531 -7.648438 3.5625 -9 5.21875 -9 C 6.640625 -9 7.558594 -8.117188 7.558594 -6.769531 C 7.558594 -5.4375 6.570312 -4.644531 4.914062 -4.644531 C 3.90625 -4.644531 2.808594 -4.914062 2.089844 -5.347656 Z M 2.089844 -5.347656 "/></g></g></g><g fill="#3c4464" fill-opacity="1"><g transform="translate(60.560452, 208.049986)"><g><path d="M 0.757812 -5.652344 C 0.757812 -5.488281 0.972656 -5.21875 1.351562 -4.96875 C 1.332031 -4.734375 1.332031 -4.519531 1.332031 -4.285156 C 1.332031 -1.566406 2.808594 0.125 5.183594 0.125 C 6.605469 0.125 8.136719 -0.484375 8.136719 -1.042969 C 8.136719 -1.242188 7.972656 -1.402344 7.777344 -1.402344 C 7.632812 -1.402344 6.40625 -0.574219 5.183594 -0.574219 C 3.113281 -0.574219 2.015625 -1.960938 2.015625 -4.589844 C 2.863281 -4.175781 3.851562 -3.960938 4.824219 -3.960938 C 6.910156 -3.960938 8.242188 -5.039062 8.242188 -6.769531 C 8.242188 -8.53125 7.003906 -9.71875 5.164062 -9.71875 C 3.257812 -9.71875 1.871094 -8.28125 1.457031 -5.832031 C 1.3125 -5.941406 1.171875 -6.011719 1.117188 -6.011719 C 0.917969 -6.011719 0.757812 -5.851562 0.757812 -5.652344 Z M 2.089844 -5.347656 C 2.394531 -7.648438 3.5625 -9 5.21875 -9 C 6.640625 -9 7.558594 -8.117188 7.558594 -6.769531 C 7.558594 -5.4375 6.570312 -4.644531 4.914062 -4.644531 C 3.90625 -4.644531 2.808594 -4.914062 2.089844 -5.347656 Z M 2.089844 -5.347656 "/></g></g></g><g fill="#3c4464" fill-opacity="1"><g transform="translate(69.740421, 208.049986)"><g><path d="M 1.511719 -1.691406 C 1.511719 -0.882812 1.691406 0.0898438 2.773438 0.0898438 C 3.742188 0.0898438 4.949219 -0.828125 4.949219 -1.351562 C 4.949219 -1.546875 4.789062 -1.710938 4.589844 -1.710938 C 4.246094 -1.710938 3.671875 -0.613281 2.773438 -0.613281 C 2.609375 -0.613281 2.449219 -0.664062 2.359375 -0.808594 C 2.089844 -1.207031 2.179688 -4.195312 2.179688 -4.445312 C 2.179688 -7.289062 2.269531 -10.152344 2.269531 -12.996094 C 2.269531 -13.195312 2.105469 -13.355469 1.90625 -13.355469 C 1.746094 -13.355469 1.636719 -13.265625 1.566406 -13.121094 C 1.511719 -13.015625 1.546875 -10.621094 1.546875 -10.242188 C 1.546875 -9.539062 1.546875 -8.820312 1.546875 -8.101562 L 1.511719 -3.835938 C 1.511719 -3.113281 1.511719 -2.410156 1.511719 -1.691406 Z M 1.511719 -1.691406 "/></g></g></g><g fill="#3c4464" fill-opacity="1"><g transform="translate(75.230403, 208.049986)"><g><path d="M 4.140625 -9.738281 C 2.683594 -9.738281 1.261719 -8.964844 1.261719 -7.34375 C 1.261719 -4.195312 6.714844 -5.148438 6.714844 -2.574219 C 6.714844 -1.042969 5.308594 -0.628906 4.03125 -0.628906 C 1.816406 -0.628906 1.746094 -2.429688 1.261719 -2.429688 C 1.0625 -2.429688 0.898438 -2.269531 0.898438 -2.070312 C 0.898438 -1.890625 1.078125 -1.566406 1.171875 -1.402344 C 1.765625 -0.414062 2.898438 0.0898438 4.03125 0.0898438 C 5.742188 0.0898438 7.433594 -0.613281 7.433594 -2.574219 C 7.433594 -5.777344 1.980469 -4.894531 1.980469 -7.34375 C 1.980469 -8.550781 3.097656 -9.019531 4.140625 -9.019531 C 6.425781 -9.019531 6.460938 -7.378906 6.984375 -7.378906 C 7.183594 -7.378906 7.34375 -7.542969 7.34375 -7.738281 C 7.34375 -7.902344 7.144531 -8.191406 7.054688 -8.335938 C 6.371094 -9.324219 5.328125 -9.738281 4.140625 -9.738281 Z M 4.140625 -9.738281 "/></g></g></g><g fill="#3c4464" fill-opacity="1"><g transform="translate(83.708381, 208.049986)"><g/></g></g><g fill="#3c4464" fill-opacity="1"><g transform="translate(90.908362, 208.049986)"><g><path d="M 1.511719 -1.691406 C 1.511719 -0.882812 1.691406 0.0898438 2.773438 0.0898438 C 3.742188 0.0898438 4.949219 -0.828125 4.949219 -1.351562 C 4.949219 -1.546875 4.789062 -1.710938 4.589844 -1.710938 C 4.246094 -1.710938 3.671875 -0.613281 2.773438 -0.613281 C 2.609375 -0.613281 2.449219 -0.664062 2.359375 -0.808594 C 2.089844 -1.207031 2.179688 -4.195312 2.179688 -4.445312 C 2.179688 -7.289062 2.269531 -10.152344 2.269531 -12.996094 C 2.269531 -13.195312 2.105469 -13.355469 1.90625 -13.355469 C 1.746094 -13.355469 1.636719 -13.265625 1.566406 -13.121094 C 1.511719 -13.015625 1.546875 -10.621094 1.546875 -10.242188 C 1.546875 -9.539062 1.546875 -8.820312 1.546875 -8.101562 L 1.511719 -3.835938 C 1.511719 -3.113281 1.511719 -2.410156 1.511719 -1.691406 Z M 1.511719 -1.691406 "/></g></g></g><g fill="#3c4464" fill-opacity="1"><g transform="translate(96.398344, 208.049986)"><g><path d="M 1.980469 -9.179688 L 1.980469 -0.269531 C 1.980469 -0.0703125 2.140625 0.0898438 2.339844 0.0898438 C 2.539062 0.0898438 2.699219 -0.0703125 2.699219 -0.269531 L 2.699219 -9.179688 C 2.699219 -9.378906 2.539062 -9.539062 2.339844 -9.539062 C 2.140625 -9.539062 1.980469 -9.378906 1.980469 -9.179688 Z M 1.980469 -9.179688 "/></g></g></g><g fill="#3c4464" fill-opacity="1"><g transform="translate(100.808336, 208.049986)"><g><path d="M 1.132812 -4.644531 C 1.132812 -4.300781 1.601562 -4.210938 1.855469 -4.140625 C 1.835938 -2.863281 1.726562 -1.585938 1.726562 -0.304688 C 1.726562 -0.109375 1.890625 0.0546875 2.089844 0.0546875 C 2.609375 0.0546875 2.484375 -1.765625 2.484375 -2.105469 L 2.484375 -3.851562 C 3.5625 -3.238281 5.867188 -1.421875 6.605469 -0.449219 C 6.75 -0.269531 6.875 0 7.144531 0 C 7.34375 0 7.507812 -0.160156 7.507812 -0.359375 C 7.507812 -0.59375 7.09375 -0.953125 6.929688 -1.117188 C 5.578125 -2.429688 4.175781 -3.761719 2.503906 -4.625 L 2.503906 -4.824219 C 3.222656 -5.308594 7.542969 -8.40625 7.542969 -8.945312 C 7.542969 -9.144531 7.378906 -9.304688 7.183594 -9.304688 C 6.949219 -9.304688 6.496094 -8.800781 6.316406 -8.640625 C 5.148438 -7.542969 3.90625 -6.496094 2.519531 -5.671875 L 2.574219 -9.324219 C 2.59375 -10.53125 2.609375 -11.753906 2.609375 -12.960938 C 2.609375 -13.15625 2.449219 -13.320312 2.25 -13.320312 C 1.800781 -13.320312 1.890625 -11.808594 1.890625 -11.519531 C 1.890625 -9.449219 1.871094 -7.378906 1.855469 -5.308594 C 1.675781 -5.203125 1.132812 -4.878906 1.132812 -4.644531 Z M 1.132812 -4.644531 "/></g></g></g><g fill="#3c4464" fill-opacity="1"><g transform="translate(109.070306, 208.049986)"><g><path d="M 0.757812 -5.652344 C 0.757812 -5.488281 0.972656 -5.21875 1.351562 -4.96875 C 1.332031 -4.734375 1.332031 -4.519531 1.332031 -4.285156 C 1.332031 -1.566406 2.808594 0.125 5.183594 0.125 C 6.605469 0.125 8.136719 -0.484375 8.136719 -1.042969 C 8.136719 -1.242188 7.972656 -1.402344 7.777344 -1.402344 C 7.632812 -1.402344 6.40625 -0.574219 5.183594 -0.574219 C 3.113281 -0.574219 2.015625 -1.960938 2.015625 -4.589844 C 2.863281 -4.175781 3.851562 -3.960938 4.824219 -3.960938 C 6.910156 -3.960938 8.242188 -5.039062 8.242188 -6.769531 C 8.242188 -8.53125 7.003906 -9.71875 5.164062 -9.71875 C 3.257812 -9.71875 1.871094 -8.28125 1.457031 -5.832031 C 1.3125 -5.941406 1.171875 -6.011719 1.117188 -6.011719 C 0.917969 -6.011719 0.757812 -5.851562 0.757812 -5.652344 Z M 2.089844 -5.347656 C 2.394531 -7.648438 3.5625 -9 5.21875 -9 C 6.640625 -9 7.558594 -8.117188 7.558594 -6.769531 C 7.558594 -5.4375 6.570312 -4.644531 4.914062 -4.644531 C 3.90625 -4.644531 2.808594 -4.914062 2.089844 -5.347656 Z M 2.089844 -5.347656 "/></g></g></g><g fill="#3c4464" fill-opacity="1"><g transform="translate(118.250275, 208.049986)"><g/></g></g><g fill="#3c4464" fill-opacity="1"><g transform="translate(125.450256, 208.049986)"><g><path d="M 1.726562 -5.707031 C 1.746094 -4.085938 1.765625 -2.449219 1.765625 -0.828125 C 1.765625 -0.558594 1.78125 -0.0546875 2.160156 -0.0546875 C 2.359375 -0.0546875 2.519531 -0.214844 2.519531 -0.414062 C 2.519531 -2.179688 2.410156 -3.960938 2.410156 -5.722656 C 4.085938 -5.761719 5.742188 -5.886719 7.414062 -5.886719 C 7.828125 -5.886719 8.261719 -5.832031 8.675781 -5.886719 C 8.675781 -5.417969 8.675781 -4.949219 8.675781 -4.480469 L 8.730469 -1.691406 C 8.730469 -1.222656 8.730469 -0.757812 8.730469 -0.289062 C 8.730469 -0.0703125 8.855469 0.125 9.089844 0.125 C 9.289062 0.125 9.449219 -0.0351562 9.449219 -0.234375 C 9.449219 -1.261719 9.449219 -2.269531 9.449219 -3.292969 L 9.394531 -9.394531 C 9.394531 -10.421875 9.394531 -11.449219 9.394531 -12.457031 C 9.394531 -12.652344 9.234375 -12.816406 9.035156 -12.816406 C 8.839844 -12.816406 8.675781 -12.652344 8.675781 -12.457031 L 8.675781 -6.640625 C 6.714844 -6.625 4.734375 -6.445312 2.773438 -6.445312 C 2.644531 -6.445312 2.539062 -6.445312 2.410156 -6.460938 L 2.410156 -11.824219 C 2.410156 -12.023438 2.25 -12.1875 2.050781 -12.1875 C 1.855469 -12.1875 1.691406 -12.023438 1.691406 -11.824219 C 1.691406 -11.375 1.691406 -10.945312 1.691406 -10.492188 L 1.726562 -7.8125 C 1.726562 -7.378906 1.726562 -6.929688 1.726562 -6.480469 C 1.476562 -6.460938 0.9375 -6.40625 0.9375 -6.066406 C 0.9375 -5.632812 1.441406 -5.707031 1.726562 -5.707031 Z M 1.726562 -5.707031 "/></g></g></g><g fill="#3c4464" fill-opacity="1"><g transform="translate(136.466224, 208.049986)"><g><path d="M 5.148438 0.109375 C 8.0625 0.109375 9.972656 -1.746094 9.972656 -4.679688 C 9.972656 -6.964844 8.875 -9.125 6.496094 -9.648438 C 6.445312 -9.792969 6.300781 -9.882812 6.15625 -9.882812 C 2.898438 -9.882812 0.898438 -7.289062 0.898438 -4.175781 C 0.898438 -1.636719 2.609375 0.109375 5.148438 0.109375 Z M 1.621094 -4.175781 C 1.621094 -6.496094 2.824219 -8.585938 5.21875 -9.070312 C 5.363281 -9.035156 5.488281 -9.035156 5.632812 -9.035156 C 8.027344 -9.035156 9.253906 -6.839844 9.253906 -4.679688 C 9.253906 -2.140625 7.667969 -0.628906 5.148438 -0.628906 C 3.007812 -0.628906 1.621094 -2.035156 1.621094 -4.175781 Z M 1.621094 -4.175781 "/></g></g></g><g fill="#3c4464" fill-opacity="1"><g transform="translate(147.338191, 208.049986)"><g><path d="M 1.421875 -9.160156 C 1.421875 -8.460938 1.421875 -7.757812 1.421875 -7.054688 L 1.441406 -2.863281 C 1.441406 -2.160156 1.441406 -1.457031 1.441406 -0.757812 C 1.441406 -0.503906 1.457031 -0.0546875 1.835938 -0.0546875 C 2.394531 -0.0546875 2.214844 -1.585938 2.214844 -1.925781 C 2.214844 -3.382812 3.601562 -8.496094 5.453125 -8.496094 C 7.414062 -8.496094 7.578125 -2.230469 7.578125 -0.828125 C 7.578125 -0.539062 7.597656 0.0195312 8.011719 0.0195312 C 8.386719 0.0195312 8.386719 -0.648438 8.386719 -0.898438 C 8.386719 -0.988281 8.386719 -1.078125 8.386719 -1.171875 L 8.335938 -1.691406 C 8.335938 -1.78125 8.335938 -1.871094 8.335938 -1.960938 C 8.335938 -3.382812 9.234375 -8.890625 11.089844 -8.890625 C 13.300781 -8.890625 13.085938 -1.855469 13.085938 -0.34375 C 13.085938 -0.144531 13.246094 0.0195312 13.445312 0.0195312 C 13.859375 0.0195312 13.859375 -0.9375 13.859375 -1.207031 C 13.859375 -3.097656 13.859375 -9.613281 11.089844 -9.613281 C 9.160156 -9.613281 8.351562 -6.425781 8.046875 -4.949219 C 7.828125 -6.300781 7.234375 -9.214844 5.453125 -9.214844 C 3.851562 -9.214844 2.628906 -6.640625 2.195312 -5.347656 C 2.195312 -5.832031 2.179688 -9.144531 2.050781 -9.378906 C 2.035156 -9.414062 1.925781 -9.523438 1.78125 -9.523438 C 1.585938 -9.523438 1.421875 -9.359375 1.421875 -9.160156 Z M 1.421875 -9.160156 "/></g></g></g><g fill="#3c4464" fill-opacity="1"><g transform="translate(162.458147, 208.049986)"><g><path d="M 0.757812 -5.652344 C 0.757812 -5.488281 0.972656 -5.21875 1.351562 -4.96875 C 1.332031 -4.734375 1.332031 -4.519531 1.332031 -4.285156 C 1.332031 -1.566406 2.808594 0.125 5.183594 0.125 C 6.605469 0.125 8.136719 -0.484375 8.136719 -1.042969 C 8.136719 -1.242188 7.972656 -1.402344 7.777344 -1.402344 C 7.632812 -1.402344 6.40625 -0.574219 5.183594 -0.574219 C 3.113281 -0.574219 2.015625 -1.960938 2.015625 -4.589844 C 2.863281 -4.175781 3.851562 -3.960938 4.824219 -3.960938 C 6.910156 -3.960938 8.242188 -5.039062 8.242188 -6.769531 C 8.242188 -8.53125 7.003906 -9.71875 5.164062 -9.71875 C 3.257812 -9.71875 1.871094 -8.28125 1.457031 -5.832031 C 1.3125 -5.941406 1.171875 -6.011719 1.117188 -6.011719 C 0.917969 -6.011719 0.757812 -5.851562 0.757812 -5.652344 Z M 2.089844 -5.347656 C 2.394531 -7.648438 3.5625 -9 5.21875 -9 C 6.640625 -9 7.558594 -8.117188 7.558594 -6.769531 C 7.558594 -5.4375 6.570312 -4.644531 4.914062 -4.644531 C 3.90625 -4.644531 2.808594 -4.914062 2.089844 -5.347656 Z M 2.089844 -5.347656 "/></g></g></g><g fill="#3c4464" fill-opacity="1"><g transform="translate(171.638116, 208.049986)"><g><path d="M 0.917969 1.421875 C 0.917969 1.601562 1.0625 1.765625 1.242188 1.765625 C 1.367188 1.765625 1.457031 1.710938 1.53125 1.601562 C 1.53125 1.601562 1.621094 1.1875 1.621094 1.171875 L 1.925781 -0.324219 C 1.960938 -0.523438 2.050781 -0.792969 2.050781 -0.988281 C 2.050781 -1.171875 1.890625 -1.3125 1.710938 -1.3125 C 1.585938 -1.3125 1.492188 -1.261719 1.421875 -1.152344 C 1.421875 -1.152344 1.351562 -0.757812 1.351562 -0.738281 L 1.042969 0.757812 C 0.988281 0.953125 0.917969 1.222656 0.917969 1.421875 Z M 0.917969 1.421875 "/></g></g></g><g fill="#3c4464" fill-opacity="1"><g transform="translate(174.572106, 208.049986)"><g/></g></g><g fill="#3c4464" fill-opacity="1"><g transform="translate(181.772087, 208.049986)"><g><path d="M 5.074219 -12.761719 C 3.113281 -12.761719 1.097656 -11.628906 1.097656 -9.449219 C 1.097656 -5.542969 8.136719 -6.265625 8.136719 -3.203125 C 8.136719 -1.386719 6.28125 -0.539062 4.699219 -0.539062 C 1.996094 -0.539062 1.546875 -2.519531 1.132812 -2.519531 C 0.9375 -2.519531 0.773438 -2.359375 0.773438 -2.160156 C 0.773438 -1.960938 1.027344 -1.621094 1.132812 -1.457031 C 1.996094 -0.289062 3.292969 0.144531 4.699219 0.144531 C 6.679688 0.144531 8.839844 -0.988281 8.839844 -3.203125 C 8.839844 -6.949219 1.78125 -6.175781 1.78125 -9.449219 C 1.78125 -11.25 3.492188 -12.078125 5.074219 -12.078125 C 6.859375 -12.078125 8.101562 -10.765625 8.28125 -10.765625 C 8.476562 -10.765625 8.640625 -10.925781 8.640625 -11.125 C 8.640625 -11.339844 8.425781 -11.484375 8.28125 -11.609375 C 7.34375 -12.367188 6.265625 -12.761719 5.074219 -12.761719 Z M 5.074219 -12.761719 "/></g></g></g><g fill="#3c4464" fill-opacity="1"><g transform="translate(191.65406, 208.049986)"><g><path d="M 1.421875 -9.160156 C 1.421875 -8.460938 1.421875 -7.757812 1.421875 -7.054688 L 1.441406 -2.863281 C 1.441406 -2.160156 1.441406 -1.457031 1.441406 -0.757812 C 1.441406 -0.503906 1.457031 -0.0546875 1.835938 -0.0546875 C 2.394531 -0.0546875 2.214844 -1.585938 2.214844 -1.925781 C 2.214844 -3.382812 3.601562 -8.496094 5.453125 -8.496094 C 7.414062 -8.496094 7.578125 -2.230469 7.578125 -0.828125 C 7.578125 -0.539062 7.597656 0.0195312 8.011719 0.0195312 C 8.386719 0.0195312 8.386719 -0.648438 8.386719 -0.898438 C 8.386719 -0.988281 8.386719 -1.078125 8.386719 -1.171875 L 8.335938 -1.691406 C 8.335938 -1.78125 8.335938 -1.871094 8.335938 -1.960938 C 8.335938 -3.382812 9.234375 -8.890625 11.089844 -8.890625 C 13.300781 -8.890625 13.085938 -1.855469 13.085938 -0.34375 C 13.085938 -0.144531 13.246094 0.0195312 13.445312 0.0195312 C 13.859375 0.0195312 13.859375 -0.9375 13.859375 -1.207031 C 13.859375 -3.097656 13.859375 -9.613281 11.089844 -9.613281 C 9.160156 -9.613281 8.351562 -6.425781 8.046875 -4.949219 C 7.828125 -6.300781 7.234375 -9.214844 5.453125 -9.214844 C 3.851562 -9.214844 2.628906 -6.640625 2.195312 -5.347656 C 2.195312 -5.832031 2.179688 -9.144531 2.050781 -9.378906 C 2.035156 -9.414062 1.925781 -9.523438 1.78125 -9.523438 C 1.585938 -9.523438 1.421875 -9.359375 1.421875 -9.160156 Z M 1.421875 -9.160156 "/></g></g></g><g fill="#3c4464" fill-opacity="1"><g transform="translate(206.774016, 208.049986)"><g><path d="M 0.757812 -5.652344 C 0.757812 -5.488281 0.972656 -5.21875 1.351562 -4.96875 C 1.332031 -4.734375 1.332031 -4.519531 1.332031 -4.285156 C 1.332031 -1.566406 2.808594 0.125 5.183594 0.125 C 6.605469 0.125 8.136719 -0.484375 8.136719 -1.042969 C 8.136719 -1.242188 7.972656 -1.402344 7.777344 -1.402344 C 7.632812 -1.402344 6.40625 -0.574219 5.183594 -0.574219 C 3.113281 -0.574219 2.015625 -1.960938 2.015625 -4.589844 C 2.863281 -4.175781 3.851562 -3.960938 4.824219 -3.960938 C 6.910156 -3.960938 8.242188 -5.039062 8.242188 -6.769531 C 8.242188 -8.53125 7.003906 -9.71875 5.164062 -9.71875 C 3.257812 -9.71875 1.871094 -8.28125 1.457031 -5.832031 C 1.3125 -5.941406 1.171875 -6.011719 1.117188 -6.011719 C 0.917969 -6.011719 0.757812 -5.851562 0.757812 -5.652344 Z M 2.089844 -5.347656 C 2.394531 -7.648438 3.5625 -9 5.21875 -9 C 6.640625 -9 7.558594 -8.117188 7.558594 -6.769531 C 7.558594 -5.4375 6.570312 -4.644531 4.914062 -4.644531 C 3.90625 -4.644531 2.808594 -4.914062 2.089844 -5.347656 Z M 2.089844 -5.347656 "/></g></g></g><g fill="#3c4464" fill-opacity="1"><g transform="translate(215.953986, 208.049986)"><g><path d="M 1.511719 -1.691406 C 1.511719 -0.882812 1.691406 0.0898438 2.773438 0.0898438 C 3.742188 0.0898438 4.949219 -0.828125 4.949219 -1.351562 C 4.949219 -1.546875 4.789062 -1.710938 4.589844 -1.710938 C 4.246094 -1.710938 3.671875 -0.613281 2.773438 -0.613281 C 2.609375 -0.613281 2.449219 -0.664062 2.359375 -0.808594 C 2.089844 -1.207031 2.179688 -4.195312 2.179688 -4.445312 C 2.179688 -7.289062 2.269531 -10.152344 2.269531 -12.996094 C 2.269531 -13.195312 2.105469 -13.355469 1.90625 -13.355469 C 1.746094 -13.355469 1.636719 -13.265625 1.566406 -13.121094 C 1.511719 -13.015625 1.546875 -10.621094 1.546875 -10.242188 C 1.546875 -9.539062 1.546875 -8.820312 1.546875 -8.101562 L 1.511719 -3.835938 C 1.511719 -3.113281 1.511719 -2.410156 1.511719 -1.691406 Z M 1.511719 -1.691406 "/></g></g></g><g fill="#3c4464" fill-opacity="1"><g transform="translate(221.443968, 208.049986)"><g><path d="M 1.511719 -1.691406 C 1.511719 -0.882812 1.691406 0.0898438 2.773438 0.0898438 C 3.742188 0.0898438 4.949219 -0.828125 4.949219 -1.351562 C 4.949219 -1.546875 4.789062 -1.710938 4.589844 -1.710938 C 4.246094 -1.710938 3.671875 -0.613281 2.773438 -0.613281 C 2.609375 -0.613281 2.449219 -0.664062 2.359375 -0.808594 C 2.089844 -1.207031 2.179688 -4.195312 2.179688 -4.445312 C 2.179688 -7.289062 2.269531 -10.152344 2.269531 -12.996094 C 2.269531 -13.195312 2.105469 -13.355469 1.90625 -13.355469 C 1.746094 -13.355469 1.636719 -13.265625 1.566406 -13.121094 C 1.511719 -13.015625 1.546875 -10.621094 1.546875 -10.242188 C 1.546875 -9.539062 1.546875 -8.820312 1.546875 -8.101562 L 1.511719 -3.835938 C 1.511719 -3.113281 1.511719 -2.410156 1.511719 -1.691406 Z M 1.511719 -1.691406 "/></g></g></g><g fill="#3c4464" fill-opacity="1"><g transform="translate(226.93395, 208.049986)"><g><path d="M 4.140625 -9.738281 C 2.683594 -9.738281 1.261719 -8.964844 1.261719 -7.34375 C 1.261719 -4.195312 6.714844 -5.148438 6.714844 -2.574219 C 6.714844 -1.042969 5.308594 -0.628906 4.03125 -0.628906 C 1.816406 -0.628906 1.746094 -2.429688 1.261719 -2.429688 C 1.0625 -2.429688 0.898438 -2.269531 0.898438 -2.070312 C 0.898438 -1.890625 1.078125 -1.566406 1.171875 -1.402344 C 1.765625 -0.414062 2.898438 0.0898438 4.03125 0.0898438 C 5.742188 0.0898438 7.433594 -0.613281 7.433594 -2.574219 C 7.433594 -5.777344 1.980469 -4.894531 1.980469 -7.34375 C 1.980469 -8.550781 3.097656 -9.019531 4.140625 -9.019531 C 6.425781 -9.019531 6.460938 -7.378906 6.984375 -7.378906 C 7.183594 -7.378906 7.34375 -7.542969 7.34375 -7.738281 C 7.34375 -7.902344 7.144531 -8.191406 7.054688 -8.335938 C 6.371094 -9.324219 5.328125 -9.738281 4.140625 -9.738281 Z M 4.140625 -9.738281 "/></g></g></g><g fill="#3c4464" fill-opacity="1"><g transform="translate(235.411939, 208.049986)"><g/></g></g><g fill="#3c4464" fill-opacity="1"><g transform="translate(242.61192, 208.049986)"><g><path d="M 1.511719 -1.691406 C 1.511719 -0.882812 1.691406 0.0898438 2.773438 0.0898438 C 3.742188 0.0898438 4.949219 -0.828125 4.949219 -1.351562 C 4.949219 -1.546875 4.789062 -1.710938 4.589844 -1.710938 C 4.246094 -1.710938 3.671875 -0.613281 2.773438 -0.613281 C 2.609375 -0.613281 2.449219 -0.664062 2.359375 -0.808594 C 2.089844 -1.207031 2.179688 -4.195312 2.179688 -4.445312 C 2.179688 -7.289062 2.269531 -10.152344 2.269531 -12.996094 C 2.269531 -13.195312 2.105469 -13.355469 1.90625 -13.355469 C 1.746094 -13.355469 1.636719 -13.265625 1.566406 -13.121094 C 1.511719 -13.015625 1.546875 -10.621094 1.546875 -10.242188 C 1.546875 -9.539062 1.546875 -8.820312 1.546875 -8.101562 L 1.511719 -3.835938 C 1.511719 -3.113281 1.511719 -2.410156 1.511719 -1.691406 Z M 1.511719 -1.691406 "/></g></g></g><g fill="#3c4464" fill-opacity="1"><g transform="translate(248.101902, 208.049986)"><g><path d="M 1.980469 -9.179688 L 1.980469 -0.269531 C 1.980469 -0.0703125 2.140625 0.0898438 2.339844 0.0898438 C 2.539062 0.0898438 2.699219 -0.0703125 2.699219 -0.269531 L 2.699219 -9.179688 C 2.699219 -9.378906 2.539062 -9.539062 2.339844 -9.539062 C 2.140625 -9.539062 1.980469 -9.378906 1.980469 -9.179688 Z M 1.980469 -9.179688 "/></g></g></g><g fill="#3c4464" fill-opacity="1"><g transform="translate(252.511883, 208.049986)"><g><path d="M 1.132812 -4.644531 C 1.132812 -4.300781 1.601562 -4.210938 1.855469 -4.140625 C 1.835938 -2.863281 1.726562 -1.585938 1.726562 -0.304688 C 1.726562 -0.109375 1.890625 0.0546875 2.089844 0.0546875 C 2.609375 0.0546875 2.484375 -1.765625 2.484375 -2.105469 L 2.484375 -3.851562 C 3.5625 -3.238281 5.867188 -1.421875 6.605469 -0.449219 C 6.75 -0.269531 6.875 0 7.144531 0 C 7.34375 0 7.507812 -0.160156 7.507812 -0.359375 C 7.507812 -0.59375 7.09375 -0.953125 6.929688 -1.117188 C 5.578125 -2.429688 4.175781 -3.761719 2.503906 -4.625 L 2.503906 -4.824219 C 3.222656 -5.308594 7.542969 -8.40625 7.542969 -8.945312 C 7.542969 -9.144531 7.378906 -9.304688 7.183594 -9.304688 C 6.949219 -9.304688 6.496094 -8.800781 6.316406 -8.640625 C 5.148438 -7.542969 3.90625 -6.496094 2.519531 -5.671875 L 2.574219 -9.324219 C 2.59375 -10.53125 2.609375 -11.753906 2.609375 -12.960938 C 2.609375 -13.15625 2.449219 -13.320312 2.25 -13.320312 C 1.800781 -13.320312 1.890625 -11.808594 1.890625 -11.519531 C 1.890625 -9.449219 1.871094 -7.378906 1.855469 -5.308594 C 1.675781 -5.203125 1.132812 -4.878906 1.132812 -4.644531 Z M 1.132812 -4.644531 "/></g></g></g><g fill="#3c4464" fill-opacity="1"><g transform="translate(260.773853, 208.049986)"><g><path d="M 0.757812 -5.652344 C 0.757812 -5.488281 0.972656 -5.21875 1.351562 -4.96875 C 1.332031 -4.734375 1.332031 -4.519531 1.332031 -4.285156 C 1.332031 -1.566406 2.808594 0.125 5.183594 0.125 C 6.605469 0.125 8.136719 -0.484375 8.136719 -1.042969 C 8.136719 -1.242188 7.972656 -1.402344 7.777344 -1.402344 C 7.632812 -1.402344 6.40625 -0.574219 5.183594 -0.574219 C 3.113281 -0.574219 2.015625 -1.960938 2.015625 -4.589844 C 2.863281 -4.175781 3.851562 -3.960938 4.824219 -3.960938 C 6.910156 -3.960938 8.242188 -5.039062 8.242188 -6.769531 C 8.242188 -8.53125 7.003906 -9.71875 5.164062 -9.71875 C 3.257812 -9.71875 1.871094 -8.28125 1.457031 -5.832031 C 1.3125 -5.941406 1.171875 -6.011719 1.117188 -6.011719 C 0.917969 -6.011719 0.757812 -5.851562 0.757812 -5.652344 Z M 2.089844 -5.347656 C 2.394531 -7.648438 3.5625 -9 5.21875 -9 C 6.640625 -9 7.558594 -8.117188 7.558594 -6.769531 C 7.558594 -5.4375 6.570312 -4.644531 4.914062 -4.644531 C 3.90625 -4.644531 2.808594 -4.914062 2.089844 -5.347656 Z M 2.089844 -5.347656 "/></g></g></g><g fill="#3c4464" fill-opacity="1"><g transform="translate(269.953822, 208.049986)"><g/></g></g><g fill="#3c4464" fill-opacity="1"><g transform="translate(277.153803, 208.049986)"><g><path d="M 1.351562 -3.582031 C 1.351562 -1.566406 1.65625 0.0546875 4.066406 0.0546875 C 4.679688 0.0546875 8.261719 -0.144531 8.261719 -0.863281 C 8.261719 -1.0625 8.101562 -1.222656 7.902344 -1.222656 C 7.433594 -1.222656 7.003906 -0.972656 6.550781 -0.863281 C 5.742188 -0.648438 4.894531 -0.628906 4.066406 -0.628906 C 2.105469 -0.628906 2.070312 -2.035156 2.070312 -3.582031 C 2.070312 -6.175781 2.125 -8.785156 2.539062 -11.359375 C 2.59375 -11.699219 2.699219 -12.042969 2.699219 -12.402344 C 2.699219 -12.601562 2.539062 -12.761719 2.339844 -12.761719 C 1.996094 -12.761719 1.980469 -12.457031 1.945312 -12.203125 C 1.53125 -9.34375 1.351562 -6.460938 1.351562 -3.582031 Z M 1.351562 -3.582031 "/></g></g></g><g fill="#3c4464" fill-opacity="1"><g transform="translate(285.613779, 208.049986)"><g><path d="M 1.980469 -9.179688 L 1.980469 -0.269531 C 1.980469 -0.0703125 2.140625 0.0898438 2.339844 0.0898438 C 2.539062 0.0898438 2.699219 -0.0703125 2.699219 -0.269531 L 2.699219 -9.179688 C 2.699219 -9.378906 2.539062 -9.539062 2.339844 -9.539062 C 2.140625 -9.539062 1.980469 -9.378906 1.980469 -9.179688 Z M 1.980469 -9.179688 "/></g></g></g><g fill="#3c4464" fill-opacity="1"><g transform="translate(290.023782, 208.049986)"><g><path d="M 4.140625 -9.738281 C 2.683594 -9.738281 1.261719 -8.964844 1.261719 -7.34375 C 1.261719 -4.195312 6.714844 -5.148438 6.714844 -2.574219 C 6.714844 -1.042969 5.308594 -0.628906 4.03125 -0.628906 C 1.816406 -0.628906 1.746094 -2.429688 1.261719 -2.429688 C 1.0625 -2.429688 0.898438 -2.269531 0.898438 -2.070312 C 0.898438 -1.890625 1.078125 -1.566406 1.171875 -1.402344 C 1.765625 -0.414062 2.898438 0.0898438 4.03125 0.0898438 C 5.742188 0.0898438 7.433594 -0.613281 7.433594 -2.574219 C 7.433594 -5.777344 1.980469 -4.894531 1.980469 -7.34375 C 1.980469 -8.550781 3.097656 -9.019531 4.140625 -9.019531 C 6.425781 -9.019531 6.460938 -7.378906 6.984375 -7.378906 C 7.183594 -7.378906 7.34375 -7.542969 7.34375 -7.738281 C 7.34375 -7.902344 7.144531 -8.191406 7.054688 -8.335938 C 6.371094 -9.324219 5.328125 -9.738281 4.140625 -9.738281 Z M 4.140625 -9.738281 "/></g></g></g><g fill="#3c4464" fill-opacity="1"><g transform="translate(298.501748, 208.049986)"><g><path d="M 4.140625 0.109375 C 7.144531 0.109375 8.152344 -2.140625 8.152344 -4.804688 C 8.152344 -6.859375 7.378906 -9.234375 4.933594 -9.234375 C 4.085938 -9.234375 3.277344 -8.964844 2.554688 -8.515625 C 2.519531 -9.988281 2.484375 -11.449219 2.484375 -12.925781 C 2.484375 -13.121094 2.320312 -13.285156 2.125 -13.285156 C 1.925781 -13.285156 1.765625 -13.121094 1.765625 -12.925781 C 1.765625 -11.285156 1.800781 -9.628906 1.835938 -7.992188 C 1.636719 -7.847656 1.242188 -7.542969 1.242188 -7.289062 C 1.242188 -7.09375 1.402344 -6.929688 1.601562 -6.929688 L 1.855469 -7.074219 C 1.855469 -6.859375 1.855469 -6.640625 1.855469 -6.425781 L 1.871094 -5.148438 C 1.871094 -4.933594 1.871094 -4.714844 1.871094 -4.5 C 1.871094 -3.796875 1.800781 -3.078125 1.765625 -2.375 C 1.710938 -2.410156 1.65625 -2.449219 1.585938 -2.449219 C 1.386719 -2.449219 1.222656 -2.285156 1.222656 -2.089844 C 1.222656 -0.59375 2.84375 0.109375 4.140625 0.109375 Z M 4.933594 -8.550781 C 6.964844 -8.550781 7.433594 -6.445312 7.433594 -4.804688 C 7.433594 -2.554688 6.75 -0.574219 4.140625 -0.574219 C 3.527344 -0.574219 2.734375 -0.792969 2.285156 -1.242188 C 2.359375 -1.277344 2.394531 -1.351562 2.429688 -1.421875 C 2.574219 -1.746094 2.574219 -6.839844 2.574219 -7.648438 C 3.257812 -8.171875 4.066406 -8.550781 4.933594 -8.550781 Z M 4.933594 -8.550781 "/></g></g></g><g fill="#3c4464" fill-opacity="1"><g transform="translate(307.627724, 208.049986)"><g><path d="M 5.148438 0.109375 C 8.0625 0.109375 9.972656 -1.746094 9.972656 -4.679688 C 9.972656 -6.964844 8.875 -9.125 6.496094 -9.648438 C 6.445312 -9.792969 6.300781 -9.882812 6.15625 -9.882812 C 2.898438 -9.882812 0.898438 -7.289062 0.898438 -4.175781 C 0.898438 -1.636719 2.609375 0.109375 5.148438 0.109375 Z M 1.621094 -4.175781 C 1.621094 -6.496094 2.824219 -8.585938 5.21875 -9.070312 C 5.363281 -9.035156 5.488281 -9.035156 5.632812 -9.035156 C 8.027344 -9.035156 9.253906 -6.839844 9.253906 -4.679688 C 9.253906 -2.140625 7.667969 -0.628906 5.148438 -0.628906 C 3.007812 -0.628906 1.621094 -2.035156 1.621094 -4.175781 Z M 1.621094 -4.175781 "/></g></g></g><g fill="#3c4464" fill-opacity="1"><g transform="translate(318.499702, 208.049986)"><g><path d="M 1.402344 -8.496094 C 1.402344 -6.730469 1.457031 -4.949219 1.53125 -3.1875 C 1.566406 -2.304688 1.492188 -1.332031 1.691406 -0.46875 C 1.746094 -0.234375 1.816406 0.0546875 2.125 0.0546875 C 3.328125 0.0546875 3.382812 -8.855469 6.28125 -8.855469 C 7.972656 -8.855469 7.972656 -5.363281 7.972656 -4.210938 C 7.972656 -3.292969 7.9375 -2.394531 7.882812 -1.476562 C 7.867188 -1.0625 7.792969 -0.664062 7.792969 -0.253906 C 7.792969 -0.0546875 7.957031 0.109375 8.152344 0.109375 C 8.316406 0.109375 8.425781 0.0195312 8.496094 -0.125 C 8.585938 -0.304688 8.65625 -3.511719 8.65625 -3.976562 C 8.65625 -5.632812 8.65625 -9.558594 6.28125 -9.558594 C 3.492188 -9.558594 2.699219 -3.835938 2.269531 -1.78125 C 2.160156 -4.300781 2.125 -6.820312 2.125 -9.359375 C 2.125 -9.558594 1.960938 -9.71875 1.765625 -9.71875 C 1.261719 -9.71875 1.402344 -8.820312 1.402344 -8.496094 Z M 1.402344 -8.496094 "/></g></g></g></svg>